<mxfile host="app.diagrams.net" modified="2021-07-19T09:27:03.169Z" agent="5.0 (Macintosh; Intel Mac OS X 10_15_7) AppleWebKit/537.36 (KHTML, like Gecko) Chrome/91.0.4472.164 Safari/537.36" etag="G5WI71Hq_h7p4UIQDDeG" version="14.9.0" type="github">
  <diagram name="Page-1" id="03018318-947c-dd8e-b7a3-06fadd420f32">
    <mxGraphModel dx="2037" dy="1006" grid="1" gridSize="10" guides="1" tooltips="1" connect="1" arrows="1" fold="1" page="1" pageScale="1" pageWidth="1600" pageHeight="900" background="none" math="0" shadow="0">
      <root>
        <mxCell id="0" />
        <mxCell id="1" parent="0" />
        <mxCell id="JkvuPfdliitZqli6kdtX-29" value="" style="rounded=0;whiteSpace=wrap;html=1;fillColor=none;" vertex="1" parent="1">
          <mxGeometry x="330" y="255" width="200" height="585" as="geometry" />
        </mxCell>
        <mxCell id="677b7b8949515195-1" value="" style="whiteSpace=wrap;html=1;rounded=0;shadow=0;labelBackgroundColor=none;strokeColor=#000000;strokeWidth=1;fillColor=none;fontFamily=Verdana;fontSize=12;fontColor=#000000;align=center;comic=1;" parent="1" vertex="1">
          <mxGeometry x="320" y="45" width="1060" height="810" as="geometry" />
        </mxCell>
        <mxCell id="677b7b8949515195-2" value="42 Pong Pong" style="whiteSpace=wrap;html=1;rounded=0;shadow=0;labelBackgroundColor=none;strokeWidth=1;fontFamily=Verdana;fontSize=28;align=center;comic=1;" parent="1" vertex="1">
          <mxGeometry x="340" y="70" width="280" height="50" as="geometry" />
        </mxCell>
        <mxCell id="677b7b8949515195-9" value="" style="line;strokeWidth=1;html=1;rounded=0;shadow=0;labelBackgroundColor=none;fillColor=none;fontFamily=Verdana;fontSize=14;fontColor=#000000;align=center;comic=1;" parent="1" vertex="1">
          <mxGeometry x="320" y="140" width="1060" height="10" as="geometry" />
        </mxCell>
        <mxCell id="677b7b8949515195-27" value="&lt;font style=&quot;font-size: 18px&quot;&gt;친구 목록&lt;/font&gt;" style="text;html=1;points=[];align=left;verticalAlign=top;spacingTop=-4;fontSize=14;fontFamily=Verdana" parent="1" vertex="1">
          <mxGeometry x="340" y="270" width="170" height="20" as="geometry" />
        </mxCell>
        <mxCell id="677b7b8949515195-28" value="@chlee" style="text;html=1;points=[];align=left;verticalAlign=top;spacingTop=-4;fontSize=16;fontFamily=Verdana" parent="1" vertex="1">
          <mxGeometry x="340" y="311" width="170" height="20" as="geometry" />
        </mxCell>
        <mxCell id="677b7b8949515195-29" value="@ina" style="text;html=1;points=[];align=left;verticalAlign=top;spacingTop=-4;fontSize=16;fontFamily=Verdana" parent="1" vertex="1">
          <mxGeometry x="340" y="346" width="170" height="20" as="geometry" />
        </mxCell>
        <mxCell id="677b7b8949515195-30" value="@sujlee" style="text;html=1;points=[];align=left;verticalAlign=top;spacingTop=-4;fontSize=16;fontFamily=Verdana" parent="1" vertex="1">
          <mxGeometry x="340" y="382" width="170" height="20" as="geometry" />
        </mxCell>
        <mxCell id="JkvuPfdliitZqli6kdtX-1" value="&lt;font style=&quot;font-size: 18px&quot;&gt;방만들기&lt;/font&gt;" style="rounded=0;whiteSpace=wrap;html=1;" vertex="1" parent="1">
          <mxGeometry x="550" y="160" width="120" height="60" as="geometry" />
        </mxCell>
        <mxCell id="JkvuPfdliitZqli6kdtX-2" value="&lt;span style=&quot;font-size: 18px&quot;&gt;빠른 시작&lt;/span&gt;" style="rounded=0;whiteSpace=wrap;html=1;" vertex="1" parent="1">
          <mxGeometry x="690" y="160" width="120" height="60" as="geometry" />
        </mxCell>
        <mxCell id="JkvuPfdliitZqli6kdtX-15" value="" style="shape=image;html=1;verticalAlign=top;verticalLabelPosition=bottom;labelBackgroundColor=#ffffff;imageAspect=0;image=https://cdn0.iconfinder.com/data/icons/octicons/1024/triangle-down-128.png" vertex="1" parent="1">
          <mxGeometry x="505" y="640" width="20" height="25" as="geometry" />
        </mxCell>
        <mxCell id="JkvuPfdliitZqli6kdtX-19" value="" style="endArrow=none;html=1;" edge="1" parent="1">
          <mxGeometry width="50" height="50" relative="1" as="geometry">
            <mxPoint x="330" y="640" as="sourcePoint" />
            <mxPoint x="530" y="639" as="targetPoint" />
          </mxGeometry>
        </mxCell>
        <mxCell id="JkvuPfdliitZqli6kdtX-20" value="" style="endArrow=none;html=1;" edge="1" parent="1">
          <mxGeometry width="50" height="50" relative="1" as="geometry">
            <mxPoint x="330" y="671" as="sourcePoint" />
            <mxPoint x="530" y="670" as="targetPoint" />
          </mxGeometry>
        </mxCell>
        <mxCell id="JkvuPfdliitZqli6kdtX-21" value="DM from @sujlee" style="text;html=1;points=[];align=left;verticalAlign=top;spacingTop=-4;fontSize=14;fontFamily=Verdana" vertex="1" parent="1">
          <mxGeometry x="340" y="645" width="140" height="20" as="geometry" />
        </mxCell>
        <mxCell id="JkvuPfdliitZqli6kdtX-23" value="" style="endArrow=none;html=1;" edge="1" parent="1">
          <mxGeometry width="50" height="50" relative="1" as="geometry">
            <mxPoint x="330" y="821" as="sourcePoint" />
            <mxPoint x="530" y="820" as="targetPoint" />
          </mxGeometry>
        </mxCell>
        <mxCell id="JkvuPfdliitZqli6kdtX-30" value="Input Box" style="text;html=1;strokeColor=none;fillColor=none;align=center;verticalAlign=middle;whiteSpace=wrap;rounded=0;fontColor=#B3B3B3;" vertex="1" parent="1">
          <mxGeometry x="330" y="820" width="70" height="20" as="geometry" />
        </mxCell>
        <mxCell id="JkvuPfdliitZqli6kdtX-32" value="" style="rounded=0;whiteSpace=wrap;html=1;fontColor=#B3B3B3;fillColor=none;" vertex="1" parent="1">
          <mxGeometry x="550" y="253" width="810" height="587" as="geometry" />
        </mxCell>
        <mxCell id="JkvuPfdliitZqli6kdtX-35" value="" style="rounded=1;whiteSpace=wrap;html=1;fontColor=#B3B3B3;fillColor=none;" vertex="1" parent="1">
          <mxGeometry x="590" y="280" width="350" height="80" as="geometry" />
        </mxCell>
        <mxCell id="JkvuPfdliitZqli6kdtX-42" value="&lt;font style=&quot;font-size: 24px&quot; color=&quot;#000000&quot;&gt;채팅방&lt;/font&gt;" style="text;html=1;strokeColor=none;fillColor=none;align=center;verticalAlign=middle;whiteSpace=wrap;rounded=0;fontColor=#B3B3B3;fontSize=18;" vertex="1" parent="1">
          <mxGeometry x="600" y="300" width="70" height="20" as="geometry" />
        </mxCell>
        <mxCell id="JkvuPfdliitZqli6kdtX-50" value="" style="html=1;verticalLabelPosition=bottom;align=center;labelBackgroundColor=#ffffff;verticalAlign=top;strokeWidth=2;shadow=0;dashed=0;shape=mxgraph.ios7.icons.user;fontColor=#B3B3B3;fillColor=none;" vertex="1" parent="1">
          <mxGeometry x="1290" y="70" width="50" height="50" as="geometry" />
        </mxCell>
        <mxCell id="JkvuPfdliitZqli6kdtX-51" value="" style="shape=ellipse;strokeColor=none;html=1;fontSize=16;fontColor=#B3B3B3;fillColor=#00CC00;" vertex="1" parent="1">
          <mxGeometry x="418" y="317" width="10" height="10" as="geometry" />
        </mxCell>
        <mxCell id="JkvuPfdliitZqli6kdtX-52" value="" style="shape=image;html=1;verticalAlign=top;verticalLabelPosition=bottom;labelBackgroundColor=#ffffff;imageAspect=0;aspect=fixed;image=https://cdn1.iconfinder.com/data/icons/hawcons/32/698351-icon-47-file-dot-128.png;fontSize=16;fontColor=#B3B3B3;strokeColor=#000000;fillColor=#00CC00;" vertex="1" parent="1">
          <mxGeometry x="408" y="338" width="44" height="44" as="geometry" />
        </mxCell>
        <mxCell id="JkvuPfdliitZqli6kdtX-55" value="" style="rounded=1;whiteSpace=wrap;html=1;fontColor=#B3B3B3;fillColor=none;" vertex="1" parent="1">
          <mxGeometry x="980" y="280" width="350" height="80" as="geometry" />
        </mxCell>
        <mxCell id="JkvuPfdliitZqli6kdtX-56" value="&lt;font style=&quot;font-size: 24px&quot; color=&quot;#000000&quot;&gt;채팅방&lt;/font&gt;" style="text;html=1;strokeColor=none;fillColor=none;align=center;verticalAlign=middle;whiteSpace=wrap;rounded=0;fontColor=#B3B3B3;fontSize=18;" vertex="1" parent="1">
          <mxGeometry x="990" y="300" width="70" height="20" as="geometry" />
        </mxCell>
        <mxCell id="JkvuPfdliitZqli6kdtX-61" value="" style="rounded=1;whiteSpace=wrap;html=1;fontColor=#B3B3B3;fillColor=none;" vertex="1" parent="1">
          <mxGeometry x="590" y="390" width="350" height="80" as="geometry" />
        </mxCell>
        <mxCell id="JkvuPfdliitZqli6kdtX-62" value="&lt;font style=&quot;font-size: 24px&quot; color=&quot;#000000&quot;&gt;채팅방&lt;/font&gt;" style="text;html=1;strokeColor=none;fillColor=none;align=center;verticalAlign=middle;whiteSpace=wrap;rounded=0;fontColor=#B3B3B3;fontSize=18;" vertex="1" parent="1">
          <mxGeometry x="600" y="410" width="70" height="20" as="geometry" />
        </mxCell>
        <mxCell id="JkvuPfdliitZqli6kdtX-63" value="" style="rounded=1;whiteSpace=wrap;html=1;fontColor=#B3B3B3;fillColor=none;" vertex="1" parent="1">
          <mxGeometry x="980" y="390" width="350" height="80" as="geometry" />
        </mxCell>
        <mxCell id="JkvuPfdliitZqli6kdtX-64" value="&lt;font style=&quot;font-size: 24px&quot; color=&quot;#000000&quot;&gt;채팅방&lt;/font&gt;" style="text;html=1;strokeColor=none;fillColor=none;align=center;verticalAlign=middle;whiteSpace=wrap;rounded=0;fontColor=#B3B3B3;fontSize=18;" vertex="1" parent="1">
          <mxGeometry x="990" y="410" width="70" height="20" as="geometry" />
        </mxCell>
        <mxCell id="JkvuPfdliitZqli6kdtX-69" value="" style="rounded=1;whiteSpace=wrap;html=1;fontColor=#B3B3B3;fillColor=none;" vertex="1" parent="1">
          <mxGeometry x="590" y="500" width="350" height="80" as="geometry" />
        </mxCell>
        <mxCell id="JkvuPfdliitZqli6kdtX-70" value="&lt;font style=&quot;font-size: 24px&quot; color=&quot;#000000&quot;&gt;채팅방&lt;/font&gt;" style="text;html=1;strokeColor=none;fillColor=none;align=center;verticalAlign=middle;whiteSpace=wrap;rounded=0;fontColor=#B3B3B3;fontSize=18;" vertex="1" parent="1">
          <mxGeometry x="600" y="520" width="70" height="20" as="geometry" />
        </mxCell>
        <mxCell id="JkvuPfdliitZqli6kdtX-71" value="" style="rounded=1;whiteSpace=wrap;html=1;fontColor=#B3B3B3;fillColor=none;" vertex="1" parent="1">
          <mxGeometry x="980" y="500" width="350" height="80" as="geometry" />
        </mxCell>
        <mxCell id="JkvuPfdliitZqli6kdtX-72" value="&lt;font style=&quot;font-size: 24px&quot; color=&quot;#000000&quot;&gt;채팅방&lt;/font&gt;" style="text;html=1;strokeColor=none;fillColor=none;align=center;verticalAlign=middle;whiteSpace=wrap;rounded=0;fontColor=#B3B3B3;fontSize=18;" vertex="1" parent="1">
          <mxGeometry x="990" y="520" width="70" height="20" as="geometry" />
        </mxCell>
        <mxCell id="JkvuPfdliitZqli6kdtX-73" value="" style="rounded=1;whiteSpace=wrap;html=1;fontColor=#B3B3B3;fillColor=none;" vertex="1" parent="1">
          <mxGeometry x="590" y="610" width="350" height="80" as="geometry" />
        </mxCell>
        <mxCell id="JkvuPfdliitZqli6kdtX-74" value="&lt;font style=&quot;font-size: 24px&quot; color=&quot;#000000&quot;&gt;채팅방&lt;/font&gt;" style="text;html=1;strokeColor=none;fillColor=none;align=center;verticalAlign=middle;whiteSpace=wrap;rounded=0;fontColor=#B3B3B3;fontSize=18;" vertex="1" parent="1">
          <mxGeometry x="600" y="630" width="70" height="20" as="geometry" />
        </mxCell>
        <mxCell id="JkvuPfdliitZqli6kdtX-75" value="" style="rounded=1;whiteSpace=wrap;html=1;fontColor=#B3B3B3;fillColor=none;" vertex="1" parent="1">
          <mxGeometry x="980" y="610" width="350" height="80" as="geometry" />
        </mxCell>
        <mxCell id="JkvuPfdliitZqli6kdtX-76" value="&lt;font style=&quot;font-size: 24px&quot; color=&quot;#000000&quot;&gt;채팅방&lt;/font&gt;" style="text;html=1;strokeColor=none;fillColor=none;align=center;verticalAlign=middle;whiteSpace=wrap;rounded=0;fontColor=#B3B3B3;fontSize=18;" vertex="1" parent="1">
          <mxGeometry x="990" y="630" width="70" height="20" as="geometry" />
        </mxCell>
        <mxCell id="JkvuPfdliitZqli6kdtX-77" value="" style="rounded=1;whiteSpace=wrap;html=1;fontColor=#B3B3B3;fillColor=none;" vertex="1" parent="1">
          <mxGeometry x="590" y="720" width="350" height="80" as="geometry" />
        </mxCell>
        <mxCell id="JkvuPfdliitZqli6kdtX-78" value="&lt;font style=&quot;font-size: 24px&quot; color=&quot;#000000&quot;&gt;채팅방&lt;/font&gt;" style="text;html=1;strokeColor=none;fillColor=none;align=center;verticalAlign=middle;whiteSpace=wrap;rounded=0;fontColor=#B3B3B3;fontSize=18;" vertex="1" parent="1">
          <mxGeometry x="600" y="740" width="70" height="20" as="geometry" />
        </mxCell>
        <mxCell id="JkvuPfdliitZqli6kdtX-79" value="" style="rounded=1;whiteSpace=wrap;html=1;fontColor=#B3B3B3;fillColor=none;" vertex="1" parent="1">
          <mxGeometry x="980" y="720" width="350" height="80" as="geometry" />
        </mxCell>
        <mxCell id="JkvuPfdliitZqli6kdtX-80" value="&lt;font style=&quot;font-size: 24px&quot; color=&quot;#000000&quot;&gt;채팅방&lt;/font&gt;" style="text;html=1;strokeColor=none;fillColor=none;align=center;verticalAlign=middle;whiteSpace=wrap;rounded=0;fontColor=#B3B3B3;fontSize=18;" vertex="1" parent="1">
          <mxGeometry x="990" y="740" width="70" height="20" as="geometry" />
        </mxCell>
      </root>
    </mxGraphModel>
  </diagram>
</mxfile>
